<?xml version="1.0" encoding="UTF-8"?>
<svg id="_Слой_1" data-name="Слой 1" xmlns="http://www.w3.org/2000/svg" xmlns:xlink="http://www.w3.org/1999/xlink" viewBox="0 0 481.2 480.08">
  <defs>
    <style>
      .cls-1 {
        fill: url(#_Безымянный_градиент_4);
      }

      .cls-1, .cls-2 {
        stroke-width: 0px;
      }

      .cls-2 {
        fill: url(#_Безымянный_градиент_5);
      }
    </style>
    <linearGradient id="_Безымянный_градиент_4" data-name="Безымянный градиент 4" x1="153.08" y1="164.06" x2="481.2" y2="164.06" gradientUnits="userSpaceOnUse">
      <stop offset="0" stop-color="#ffffb3"/>
      <stop offset="1" stop-color="#7faeff"/>
    </linearGradient>
    <linearGradient id="_Безымянный_градиент_5" data-name="Безымянный градиент 5" x1="0" y1="352.08" x2="256" y2="352.08" gradientUnits="userSpaceOnUse">
      <stop offset="0" stop-color="#7faeff"/>
      <stop offset="1" stop-color="#ffffb3"/>
    </linearGradient>
  </defs>
  <path class="cls-1" d="m249.5,80.63l32.8-59.98c15.06-27.54,54.61-27.54,69.68,0l32.8,59.98c3.64,6.66,9.12,12.14,15.78,15.78l59.98,32.8c27.54,15.06,27.54,54.61,0,69.68l-59.98,32.8c-6.66,3.64-12.14,9.12-15.78,15.78l-32.8,59.98c-15.06,27.54-54.61,27.54-69.68,0l-32.8-59.98c-3.64-6.66-9.12-12.14-15.78-15.78l-59.98-32.8c-27.54-15.06-27.54-54.61,0-69.68l59.98-32.8c6.66-3.64,12.14-9.12,15.78-15.78Z"/>
  <path class="cls-2" d="m75.23,286.99l25.59-46.8c11.75-21.49,42.61-21.49,54.36,0l25.59,46.8c2.84,5.2,7.12,9.47,12.32,12.32l46.8,25.59c21.49,11.75,21.49,42.61,0,54.36l-46.8,25.59c-5.2,2.84-9.47,7.12-12.32,12.32l-25.59,46.8c-11.75,21.49-42.61,21.49-54.36,0l-25.59-46.8c-2.84-5.2-7.12-9.47-12.32-12.32l-46.8-25.59c-21.49-11.75-21.49-42.61,0-54.36l46.8-25.59c5.2-2.84,9.47-7.12,12.32-12.32Z"/>
</svg>